:SAMPLES-PER-SECOND 30
:FULLY-SPECIFIED
:DEGREES
338
root  30.4655 33.4224 -66.4478 2.3482 -3.69716 0.779894
RightUpLeg  -2.66543 -20.0577 -2.15871
RightLeg  12.2545 -12.0837 -1.80264
RightFoot  -0.825995 -0.00331587 0.152347
RightToes  -25.4787 -0.112917 -0.219347
Spine  3.71622 -0.55066 0.926921
Spine1  6.95489 -1.16199 1.55658
HEad  15.7304 55.8195 -3.83127
LeftShoulder1  0 -2.42657e-020 -4.95415e-022
LeftArm  -38.7377 12.0411 -90.8687
LeftForeArm  60.7743 -14.2516 -2.51697
LeftHand  0.230441 -10.0326 -2.87006
RightShoulder  0 2.42657e-020 1.07489e-018
RightArm  -48.0423 -16.9333 81.4223
RightForeArm  48.749 18.9069 3.43468
RightHand  -1.43473 21.9279 -7.01576
LeftUpLeg  -1.83094 -1.07497 -0.334821
LeftLeg  13.1177 -6.1461 -1.02089
LeftFoot  -3.18646 -0.00197197 0.294823
LeftToes  -9.4892 8.72033e-007 1.17809e-007
339
root  30.4431 33.4213 -66.4497 2.30083 -3.97727 0.757597
RightUpLeg  -2.65246 -19.8802 -2.10743
RightLeg  12.2318 -11.9807 -1.7827
RightFoot  -0.833652 -0.00309798 0.151929
RightToes  -25.2937 -0.112892 -0.217963
Spine  3.74595 -0.518292 0.903449
Spine1  7.01619 -1.09108 1.50274
HEad  16.0828 55.7013 -3.46104
LeftShoulder1  0 -2.42657e-020 -4.95415e-022
LeftArm  -39.0348 12.032 -90.8151
LeftForeArm  61.0382 -14.0647 -2.48141
LeftHand  0.230753 -10.0041 -2.83251
RightShoulder  0 2.42657e-020 1.07489e-018
RightArm  -47.9623 -16.8325 81.4762
RightForeArm  48.7704 18.9359 3.44036
RightHand  -1.43318 21.9022 -7.00488
LeftUpLeg  -1.8169 -1.01934 -0.307367
LeftLeg  13.263 -5.92292 -0.999445
LeftFoot  -3.26499 -0.0016589 0.294079
LeftToes  -9.53923 8.72033e-007 1.17809e-007
340
root  30.414 33.4204 -66.4694 2.28436 -4.16208 0.690268
RightUpLeg  -2.68044 -19.7547 -1.97815
RightLeg  12.2015 -11.9239 -1.768
RightFoot  -0.812189 -0.00292927 0.15174
RightToes  -25.2388 -0.112822 -0.21697
Spine  3.74612 -0.537332 0.90479
Spine1  7.01687 -1.12338 1.4955
HEad  16.5491 55.1966 -3.06833
LeftShoulder1  0 -2.42657e-020 -4.95415e-022
LeftArm  -39.2127 12.1488 -90.7389
LeftForeArm  61.1551 -14.0083 -2.47063
LeftHand  0.227882 -10.0806 -2.8602
RightShoulder  0 2.42657e-020 1.07489e-018
RightArm  -47.8765 -16.7167 81.5261
RightForeArm  48.7638 18.92 3.43724
RightHand  -1.43282 21.9056 -7.02589
LeftUpLeg  -1.8637 -1.03139 -0.214442
LeftLeg  13.3888 -5.71846 -0.978026
LeftFoot  -3.33733 -0.00129866 0.29243
LeftToes  -9.60747 8.72033e-007 1.17809e-007
341
root  30.3906 33.4199 -66.4979 2.26731 -4.28777 0.67729
RightUpLeg  -2.75605 -19.6843 -1.90937
RightLeg  12.2494 -11.8817 -1.77193
RightFoot  -0.813513 -0.00284517 0.152205
RightToes  -25.2061 -0.112651 -0.216065
Spine  3.77006 -0.579719 0.867834
Spine1  7.06374 -1.19824 1.40607
HEad  17.1851 53.9793 -2.49494
LeftShoulder1  0 -2.42657e-020 -4.95415e-022
LeftArm  -39.332 12.1613 -90.5844
LeftForeArm  61.2099 -13.9589 -2.46129
LeftHand  0.223522 -10.1591 -2.88614
RightShoulder  0 2.42657e-020 1.07489e-018
RightArm  -47.745 -16.5065 81.6803
RightForeArm  48.7669 18.8955 3.4324
RightHand  -1.42906 21.8826 -7.01445
LeftUpLeg  -1.89295 -0.953278 -0.160021
LeftLeg  13.4329 -5.67255 -0.9747
LeftFoot  -3.32303 -0.00079607 0.288334
LeftToes  -9.68923 8.72033e-007 1.17809e-007
342
root  30.3608 33.42 -66.539 2.28026 -4.42405 0.621452
RightUpLeg  -2.8794 -19.4969 -1.75205
RightLeg  12.2892 -11.9331 -1.78787
RightFoot  -0.82164 -0.00288117 0.153749
RightToes  -25.0157 -0.11239 -0.215237
Spine  3.76251 -0.612071 0.846482
Spine1  7.04533 -1.25668 1.35463
HEad  18.2797 51.8257 -1.48838
LeftShoulder1  0 -2.42657e-020 -4.95415e-022
LeftArm  -39.4571 12.1616 -90.4336
LeftForeArm  61.3129 -13.8663 -2.44378
LeftHand  0.216032 -10.1515 -2.80371
RightShoulder  0 2.42657e-020 1.07489e-018
RightArm  -47.5015 -16.3723 81.8158
RightForeArm  48.7343 18.8779 3.42901
RightHand  -1.41905 21.8719 -6.96651
LeftUpLeg  -1.93349 -0.851233 -0.0401478
LeftLeg  13.4039 -5.61063 -0.961202
LeftFoot  -3.24025 0.00018378 0.276524
LeftToes  -10.0396 8.72033e-007 1.17809e-007
343
root  30.3308 33.4218 -66.5806 2.26374 -4.63779 0.563999
RightUpLeg  -2.97238 -19.1465 -1.58199
RightLeg  12.3151 -12.0928 -1.81695
RightFoot  -0.829018 -0.00313565 0.157772
RightToes  -24.7417 -0.11205 -0.214478
Spine  3.76018 -0.63165 0.816987
Spine1  7.03966 -1.28796 1.28651
HEad  19.053 49.2447 -0.650823
LeftShoulder1  0 -2.42657e-020 -4.95415e-022
LeftArm  -39.7192 12.1324 -90.2915
LeftForeArm  61.5676 -13.7618 -2.42372
LeftHand  0.226356 -10.1714 -2.91495
RightShoulder  0 2.42657e-020 1.07489e-018
RightArm  -47.4495 -16.1511 81.9984
RightForeArm  48.8599 18.8074 3.41492
RightHand  -1.39968 21.8773 -6.86481
LeftUpLeg  -1.96812 -0.732492 0.0670017
LeftLeg  13.4443 -5.5386 -0.952932
LeftFoot  -3.251 0.000558785 0.273755
LeftToes  -10.1593 8.72033e-007 1.17809e-007
344
root  30.3067 33.427 -66.6272 2.23753 -4.87687 0.52912
RightUpLeg  -3.06408 -19.0486 -1.48203
RightLeg  12.3152 -11.96 -1.79736
RightFoot  -0.759006 -0.0021468 0.141454
RightToes  -24.6997 -0.111643 -0.213779
Spine  3.78007 -0.657573 0.785069
Spine1  7.07661 -1.33323 1.21553
HEad  19.3047 46.6616 -0.180518
LeftShoulder1  0 -2.42657e-020 -4.95415e-022
LeftArm  -39.8193 12.0803 -90.1662
LeftForeArm  61.6398 -13.7252 -2.41674
LeftHand  0.219068 -10.1354 -2.84183
RightShoulder  0 2.42657e-020 1.07489e-018
RightArm  -47.2679 -15.9251 82.1579
RightForeArm  48.913 18.8071 3.41477
RightHand  -1.40734 21.9469 -6.88072
LeftUpLeg  -2.01543 -0.651813 0.150369
LeftLeg  13.5257 -5.48012 -0.950934
LeftFoot  -3.18695 0.00130518 0.264795
LeftToes  -10.5348 8.72033e-007 1.17809e-007
345
root  30.28 33.43 -66.6785 2.19577 -5.24144 0.480191
RightUpLeg  -3.15087 -18.7411 -1.34779
RightLeg  12.2921 -11.9087 -1.7849
RightFoot  -0.705682 -0.0015271 0.129703
RightToes  -24.5155 -0.111179 -0.21313
Spine  3.81354 -0.657164 0.753974
Spine1  7.1407 -1.32575 1.14812
HEad  19.7456 44.2338 0.544717
LeftShoulder1  0 -2.42657e-020 -4.95415e-022
LeftArm  -39.7869 12.0202 -90.0336
LeftForeArm  61.5863 -13.7466 -2.42086
LeftHand  0.206786 -9.99387 -2.73653
RightShoulder  0 2.42657e-020 1.07489e-018
RightArm  -46.985 -15.6882 82.3221
RightForeArm  48.8011 18.8886 3.431
RightHand  -1.38417 21.8922 -6.77985
LeftUpLeg  -2.0698 -0.371103 0.225357
LeftLeg  13.6377 -5.28934 -0.928633
LeftFoot  -3.26113 0.00164061 0.261739
LeftToes  -10.3201 8.72033e-007 1.17809e-007
346
root  30.2503 33.4364 -66.7482 2.24006 -5.63922 0.404002
RightUpLeg  -3.35101 -18.4499 -1.13288
RightLeg  12.2657 -11.8194 -1.7662
RightFoot  -0.516969 0.000873955 0.0885208
RightToes  -24.7875 -0.110671 -0.212523
Spine  3.84042 -0.674069 0.749203
Spine1  7.19204 -1.35368 1.13006
HEad  20.1417 42.075 1.13291
LeftShoulder1  0 -2.42657e-020 -4.95415e-022
LeftArm  -39.8422 11.9047 -89.9547
LeftForeArm  61.5632 -13.7363 -2.41899
LeftHand  0.21347 -10.0241 -2.80558
RightShoulder  0 2.42657e-020 1.07489e-018
RightArm  -46.3987 -15.4185 82.3833
RightForeArm  48.5765 18.9947 3.45229
RightHand  -1.39227 21.8973 -6.81988
LeftUpLeg  -2.24839 -0.102242 0.354341
LeftLeg  13.7999 -5.21707 -0.931233
LeftFoot  -3.26784 0.00192487 0.258935
LeftToes  -10.4778 8.72033e-007 1.17809e-007
347
root  30.2185 33.4428 -66.8221 2.25081 -6.06482 0.341665
RightUpLeg  -3.49667 -18.2282 -0.954546
RightLeg  12.1591 -11.6526 -1.71964
RightFoot  -0.404832 0.00209409 0.0635347
RightToes  -24.5948 -0.11013 -0.211948
Spine  3.86974 -0.683447 0.739488
Spine1  7.24894 -1.36674 1.10201
HEad  20.5281 40.1215 1.63318
LeftShoulder1  0 -2.42657e-020 -4.95415e-022
LeftArm  -39.8057 11.7659 -89.8612
LeftForeArm  61.5254 -13.6981 -2.41195
LeftHand  0.215259 -10.0161 -2.87159
RightShoulder  0 2.42657e-020 1.07489e-018
RightArm  -45.9938 -15.1487 82.4749
RightForeArm  48.5236 19.0821 3.46962
RightHand  -1.39395 21.9052 -6.82589
LeftUpLeg  -2.3447 0.166341 0.470015
LeftLeg  13.8628 -5.08958 -0.914347
LeftFoot  -3.25623 0.00250704 0.250896
LeftToes  -10.5756 8.72033e-007 1.17809e-007
